<svg xmlns="http://www.w3.org/2000/svg" width="375" viewBox="0 0 375 375" height="375" version="1.0"><defs><clipPath id="a"><path d="M 112.5 112.5 L 262.5 112.5 L 262.5 262.5 L 112.5 262.5 Z M 112.5 112.5"/></clipPath></defs><g clip-path="url(#a)"><path fill="#FFF" d="M 157.5 232.5 C 149.210938 232.5 142.574219 239.210938 142.574219 247.5 C 142.574219 255.789062 149.210938 262.5 157.5 262.5 C 165.789062 262.5 172.5 255.789062 172.5 247.5 C 172.5 239.210938 165.789062 232.5 157.5 232.5 Z M 112.5 112.5 L 112.5 127.5 L 127.5 127.5 L 154.460938 184.386719 L 144.335938 202.761719 C 143.175781 204.9375 142.5 207.375 142.5 210 C 142.5 218.289062 149.210938 225 157.5 225 L 247.5 225 L 247.5 210 L 160.6875 210 C 159.636719 210 158.8125 209.175781 158.8125 208.125 C 158.8125 207.789062 158.886719 207.488281 159.039062 207.226562 L 165.75 195 L 221.625 195 C 227.25 195 232.164062 191.886719 234.75 187.273438 L 261.5625 138.601562 C 262.164062 137.550781 262.5 136.3125 262.5 135 C 262.5 130.835938 259.125 127.5 255 127.5 L 144.113281 127.5 L 136.988281 112.5 Z M 232.5 232.5 C 224.210938 232.5 217.574219 239.210938 217.574219 247.5 C 217.574219 255.789062 224.210938 262.5 232.5 262.5 C 240.789062 262.5 247.5 255.789062 247.5 247.5 C 247.5 239.210938 240.789062 232.5 232.5 232.5 Z M 232.5 232.5"/></g></svg>